<svg width="14" height="14" viewBox="0 0 14 14" fill="none" xmlns="http://www.w3.org/2000/svg">
<path d="M12.7538 1.41588C12.7538 1.19348 12.5735 1.01318 12.3511 1.01318C12.2443 1.01318 12.1418 1.05561 12.0663 1.13113L6.89318 6.30427H6.87621L1.70308 1.13113C1.62756 1.05561 1.52513 1.01318 1.41832 1.01318C1.19592 1.01318 1.01562 1.19348 1.01562 1.41588C1.01562 1.52269 1.05805 1.62511 1.13357 1.70063L6.30671 6.87377V6.89074L1.13357 12.0639C1.05805 12.1394 1.01563 12.2418 1.01563 12.3486C1.01563 12.571 1.19592 12.7513 1.41832 12.7513C1.52513 12.7513 1.62756 12.7089 1.70308 12.6334L6.87621 7.46025H6.89318L12.0663 12.6334C12.1418 12.7089 12.2443 12.7513 12.3511 12.7513C12.5735 12.7513 12.7538 12.571 12.7538 12.3486C12.7538 12.2418 12.7113 12.1394 12.6358 12.0639L7.46269 6.89074V6.87377L12.6358 1.70063C12.7113 1.62511 12.7538 1.52269 12.7538 1.41588Z" fill="#E85C21" stroke="#E85C21" stroke-width="0.5" stroke-linecap="round" stroke-linejoin="round"/>
</svg>
