<svg width="44" height="44" viewBox="0 0 44 44" fill="none" xmlns="http://www.w3.org/2000/svg">
<circle cx="22" cy="22" r="22" fill="white"/>
<path fill-rule="evenodd" clip-rule="evenodd" d="M11 15C11 14.4477 11.4477 14 12 14H32C32.5523 14 33 14.4477 33 15C33 15.5523 32.5523 16 32 16H12C11.4477 16 11 15.5523 11 15ZM11 22C11 21.4477 11.4477 21 12 21H32C32.5523 21 33 21.4477 33 22C33 22.5523 32.5523 23 32 23H12C11.4477 23 11 22.5523 11 22ZM11 29C11 28.4477 11.4477 28 12 28H32C32.5523 28 33 28.4477 33 29C33 29.5523 32.5523 30 32 30H12C11.4477 30 11 29.5523 11 29Z" fill="#E85C21"/>
</svg>
