<svg width="16" height="16" viewBox="0 0 16 16" fill="none" xmlns="http://www.w3.org/2000/svg">
<path d="M15.4785 13.1005L13.3095 15.2522C12.9893 15.5805 12.5649 15.6918 12.1516 15.6923C10.3237 15.6375 8.59601 14.7397 7.17745 13.8177C4.84896 12.1238 2.71247 10.0233 1.37158 7.48501C0.857296 6.42061 0.25386 5.06252 0.311514 3.87446C0.316655 3.42754 0.437091 2.98891 0.751847 2.70083L2.9209 0.532869C3.37131 0.149753 3.80689 0.282215 4.09512 0.728471L5.84013 4.03747C6.02379 4.42948 5.91844 4.84951 5.64441 5.12962L4.84528 5.92834C4.79595 5.99592 4.76454 6.07284 4.76374 6.15656C5.07018 7.34274 5.99853 8.43604 6.81863 9.18843C7.63872 9.94084 8.52023 10.9602 9.66449 11.2015C9.80592 11.241 9.97917 11.2548 10.0804 11.1608L11.01 10.2153C11.3304 9.97246 11.7931 9.85374 12.1352 10.0523H12.1516L15.2991 11.9106C15.7612 12.2002 15.8094 12.76 15.4785 13.1005Z" fill="#878787"/>
</svg>
