<svg width="24" height="24" viewBox="0 0 24 24" fill="none" xmlns="http://www.w3.org/2000/svg">
<path d="M23.2178 19.6507L19.9642 22.8782C19.484 23.3707 18.8474 23.5376 18.2274 23.5383C15.4856 23.4562 12.8941 22.1094 10.7662 20.7265C7.27347 18.1856 4.06874 15.0349 2.0574 11.2274C1.28597 9.63083 0.380821 7.59369 0.467301 5.8116C0.475013 5.14121 0.655667 4.48327 1.1278 4.05115L4.38138 0.799212C5.05699 0.224538 5.71036 0.423231 6.14271 1.09262L8.76022 6.05612C9.03572 6.64414 8.87769 7.27417 8.46665 7.69435L7.26796 8.89242C7.19396 8.99379 7.14684 9.10917 7.14565 9.23475C7.6053 11.014 8.99782 12.654 10.228 13.7826C11.4581 14.9112 12.7804 16.4402 14.4968 16.8022C14.7089 16.8614 14.9688 16.8822 15.1206 16.7411L16.515 15.3229C16.9957 14.9586 17.6897 14.7805 18.2029 15.0784H18.2274L22.9487 17.8658C23.6418 18.3003 23.7141 19.1399 23.2178 19.6507V19.6507Z" fill="#373737"/>
</svg>
